<svg width="24" height="24" viewBox="0 0 24 24" fill="none" xmlns="http://www.w3.org/2000/svg">
<path fill-rule="evenodd" clip-rule="evenodd" d="M7 10C7 7.23858 9.23858 5 12 5C14.7614 5 17 7.23858 17 10C17 12.7614 14.7614 15 12 15C9.23858 15 7 12.7614 7 10ZM12 7C10.3431 7 9 8.34315 9 10C9 11.6569 10.3431 13 12 13C13.6569 13 15 11.6569 15 10C15 8.34315 13.6569 7 12 7Z" fill="white"/>
<path fill-rule="evenodd" clip-rule="evenodd" d="M1 12C1 5.92487 5.92487 1 12 1C18.0751 1 23 5.92487 23 12C23 18.0751 18.0751 23 12 23C5.92487 23 1 18.0751 1 12ZM12 3C7.02944 3 3 7.02944 3 12C3 14.4418 3.97244 16.6565 5.55117 18.278C6.44278 16.9068 7.98848 16 9.74596 16H14.254C16.0115 16 17.5572 16.9068 18.4488 18.278C20.0276 16.6565 21 14.4418 21 12C21 7.02944 16.9706 3 12 3ZM16.8861 19.5594C16.3764 18.6301 15.3888 18 14.254 18H9.74596C8.61119 18 7.62357 18.6301 7.11384 19.5594C8.52097 20.4708 10.1987 21 12 21C13.8013 21 15.479 20.4708 16.8861 19.5594Z" fill="white"/>
</svg>
